<svg width="63" height="64" viewBox="0 0 63 64" fill="none" xmlns="http://www.w3.org/2000/svg">
<g clip-path="url(#clip0_2003_485)">
<path d="M0.010437 38.9565C0.010437 35.8505 0.62591 32.7748 1.82179 29.9053C3.01768 27.0356 4.77046 24.4283 6.98014 22.2319C9.18982 20.0356 11.813 18.2933 14.7001 17.1047C17.5872 15.9163 20.6816 15.3044 23.8065 15.3044V38.9565H0.010437Z" fill="#DCDCDC"/>
<path d="M0.010437 38.9565C0.010437 42.2453 0.62591 45.5019 1.82179 48.5404C3.01768 51.5788 4.77046 54.3395 6.98014 56.6649C9.18982 58.9904 11.813 60.8352 14.7001 62.0937C17.5872 63.3523 20.6816 64 23.8065 64V38.9565H0.010437Z" fill="#F3F2F2"/>
<path d="M47.6026 38.9565C47.6026 42.2453 46.9876 45.5019 45.7918 48.5404C44.5958 51.5788 42.8431 54.3395 40.633 56.6649C38.4233 58.9904 35.8001 60.8352 32.9128 62.0937C30.026 63.3523 26.9315 64 23.8065 64V38.9565H47.6026Z" fill="white"/>
<path d="M63 18.0869C63 28.0761 54.8526 36.1739 44.8029 36.1739H26.606V18.0869C26.606 8.09784 34.7531 0 44.8029 0C54.8526 0 63 8.09784 63 18.0869Z" fill="#F5F5F5"/>
</g>
<defs>
<clipPath id="clip0_2003_485">
<rect width="63" height="64" fill="white"/>
</clipPath>
</defs>
</svg>
